<svg xmlns="http://www.w3.org/2000/svg" xmlns:xlink="http://www.w3.org/1999/xlink" version="1.1" id="Layer_1" x="0px" y="0px" width="71.58px" height="100px" viewBox="3.579 -10.0 71.58 135.0" enable-background="new 0 0 71.58 100" xml:space="preserve">
<path fill="white" d="M35.79,100C35.79,100,0,59.617,0,35.79C0,14.33,14.343,0,35.79,0c21.447,0,35.79,14.33,35.79,35.79  C71.58,59.617,35.79,100,35.79,100z"/>
<path fill="#010101" d="M35.79,0C14.343,0,0,14.33,0,35.79C0,59.617,35.79,100,35.79,100s35.79-40.383,35.79-64.21  C71.58,14.33,57.237,0,35.79,0z M6.315,36.842c0-18.296,11.18-30.527,29.474-30.527c18.292,0,29.474,12.231,29.474,30.527  c0,20.316-29.474,53.686-29.474,53.686S6.315,57.158,6.315,36.842z"/>
<path fill="#010101" d="M35.959,26.374c5.264,0,9.532,4.268,9.532,9.531c0,5.263-4.269,9.531-9.532,9.531  c-5.266,0-9.534-4.268-9.534-9.531C26.425,30.642,30.693,26.374,35.959,26.374z"/>
<text x="0.0" y="117.5" font-size="5.0" font-weight="bold" font-family="Helvetica Neue, Helvetica, Arial-Unicode, Arial, Sans-serif" fill="#000000">Created by Samuel Q. Green</text><text x="0.0" y="122.5" font-size="5.0" font-weight="bold" font-family="Helvetica Neue, Helvetica, Arial-Unicode, Arial, Sans-serif" fill="#000000">from the Noun Project</text></svg>